<?xml version="1.0" standalone="no"?>
<!DOCTYPE svg PUBLIC "-//W3C//DTD SVG 20010904//EN"
 "http://www.w3.org/TR/2001/REC-SVG-20010904/DTD/svg10.dtd">
<svg version="1.0" xmlns="http://www.w3.org/2000/svg"
 width="700.000000pt" height="700.000000pt" viewBox="0 0 700.000000 700.000000"
 preserveAspectRatio="xMidYMid meet">
<metadata>
Created by potrace 1.11, written by Peter Selinger 2001-2013
</metadata>
<g transform="translate(0.000000,700.000000) scale(0.100000,-0.100000)"
fill="#000000" stroke="none">
<path d="M3358 6995 c-2 -2 -25 -6 -53 -9 -194 -25 -426 -124 -594 -253 -76
-59 -2359 -2340 -2430 -2428 -134 -167 -207 -329 -267 -594 -13 -58 -12 -328
2 -418 31 -200 116 -397 246 -573 63 -86 2340 -2364 2443 -2445 119 -94 244
-161 388 -209 152 -51 222 -61 422 -61 118 1 172 5 255 24 193 42 394 137 545
258 77 62 2354 2347 2409 2418 101 129 165 247 210 387 22 68 30 103 55 233
10 51 8 329 -3 375 -3 14 -10 48 -16 75 -6 28 -13 61 -16 74 -24 112 -127 314
-224 441 -83 108 -2354 2376 -2460 2456 -215 163 -482 250 -770 252 -76 0
-140 -1 -142 -3z m323 -281 c147 -28 301 -93 419 -177 30 -22 584 -569 1232
-1216 921 -921 1186 -1191 1221 -1246 88 -138 134 -251 161 -395 16 -85 18
-268 4 -338 -5 -26 -11 -59 -14 -73 -13 -91 -116 -305 -194 -404 -19 -24 -559
-568 -1200 -1208 -1200 -1198 -1210 -1208 -1365 -1285 -335 -166 -757 -124
-1061 107 -47 35 -544 526 -1224 1208 -630 631 -1157 1162 -1171 1178 -29 36
-87 131 -121 200 -108 217 -126 513 -47 754 27 82 79 187 132 266 54 82 2323
2356 2432 2437 129 97 274 162 430 191 92 18 274 18 366 1z"/>
<path d="M3510 5508 c0 -3 7 -23 16 -44 42 -101 134 -390 147 -464 3 -14 10
-43 15 -65 11 -39 15 -62 27 -139 4 -21 8 -47 10 -58 14 -73 27 -245 27 -368
0 -142 -1 -163 -23 -305 -26 -169 -94 -354 -180 -491 -23 -36 -40 -67 -37 -69
5 -5 152 48 233 84 143 65 308 197 381 304 84 125 120 256 111 411 -7 122 -10
136 -48 250 -75 224 -243 486 -486 758 -104 116 -193 207 -193 196z"/>
<path d="M2738 4245 c-2 -1 -34 -5 -73 -8 -306 -26 -681 -245 -1080 -630
l-110 -107 57 25 c31 13 104 40 161 59 704 236 1314 225 1723 -29 41 -26 73
-49 70 -52 -3 -3 -42 -18 -87 -34 -364 -127 -592 -354 -633 -632 -8 -50 -9
-188 -2 -207 3 -8 8 -33 11 -54 17 -119 112 -333 222 -501 59 -90 148 -212
163 -225 3 -3 13 -14 21 -26 36 -52 299 -337 305 -331 2 2 -8 32 -22 68 -63
159 -141 426 -169 577 -3 15 -7 38 -10 51 -2 13 -7 49 -11 80 -3 31 -8 59 -10
62 -5 10 -18 216 -18 299 1 311 71 580 206 798 l46 73 26 -81 c96 -299 282
-528 499 -614 96 -38 167 -49 282 -43 240 13 496 129 802 363 83 64 102 79
202 168 83 73 201 189 197 193 -3 3 -43 -12 -101 -36 -30 -13 -201 -70 -222
-74 -10 -2 -25 -7 -33 -10 -20 -9 -206 -55 -250 -62 -19 -3 -51 -10 -70 -15
-19 -5 -64 -12 -100 -16 -36 -3 -68 -8 -71 -10 -12 -6 -188 -17 -284 -17 -278
0 -492 46 -700 149 -49 24 -109 59 -133 77 -39 29 -46 41 -78 136 -101 305
-298 528 -529 603 -30 9 -193 37 -197 33z"/>
</g>
</svg>
